<?xml version="1.0" encoding="UTF-8"?>
<svg xmlns="http://www.w3.org/2000/svg" viewBox="0 0 30.2 29.41">
  <defs>
    <style>
      .cls-1 {
        fill: #fff;
      }

      .cls-2 {
        fill: #c4250c;
      }

      .cls-3 {
        fill: #aa5318;
      }
    </style>
  </defs>
  <g id="_レイヤー_4" data-name="レイヤー 4">
    <path d="M26.19,23.63s-1.79,3.18-5.03,4.65c0,0-3.31,1.47-6.94,1.06,0,0-5.82-.16-8.4-3.92,0,0-4.31-6.65-5.69-13.23C-.99,6.81,5.42,2.81,5.42,2.81,11.64-1.84,21.03.69,21.03.69c7.21,2.04,8.4,7.1,8.4,7.1,1.92,3.67-.33,9.31-.33,9.31l-2.91,6.53Z"/>
  </g>
  <g id="_レイヤー_3" data-name="レイヤー 3">
    <path class="cls-2" d="M.79,10.24c-.66,6.12,5.4,9.02,5.4,9.02,5.51,3.72,12.12,2.07,12.12,2.07,8.34-1.37,10.39-7,10.39-7,2.31-4.08-.86-8.41-.86-8.41C24.93.85,16.4.44,16.4.44,8.33-.54,3.11,5.18,3.11,5.18,1.06,7.06.79,10.24.79,10.24Z"/>
  </g>
  <g id="_レイヤー_2" data-name="レイヤー 2">
    <path class="cls-3" d="M5.22,18.65c2.78,2.69,8.99,3.1,8.99,3.1,5.03.65,10.98-3.1,10.98-3.1,1.52-1.06,1.45-3.18,1.45-3.18-.73-5.55-6.68-8.33-6.68-8.33-3.64-2.12-10.98.08-10.98.08C2.71,10.24,3.5,15.71,3.5,15.71c.2,2.69,1.72,2.94,1.72,2.94Z"/>
  </g>
  <g id="_レイヤー_5" data-name="レイヤー 5">
    <polygon class="cls-1" points="15.21 6.9 13.62 9.01 16 11.14 17.19 8.93 15.21 6.9"/>
    <polygon class="cls-1" points="12.19 11.14 13.62 9.01 16 11.14 15.54 12.12 12.19 11.14"/>
    <polygon class="cls-1" points="21.5 11.14 23.74 11.3 25.72 15.55 22.15 13.99 21.5 11.14"/>
    <polygon class="cls-1" points="20.17 13.5 21.03 14.81 22.15 13.99 21.5 11.14 20.17 13.5"/>
    <polygon class="cls-1" points="23.01 16.77 21.03 14.81 22.15 13.99 25.72 15.55 23.01 16.77"/>
    <polygon class="cls-1" points="8.33 17.67 11.31 16.53 13.62 17.18 10.98 18.82 8.33 17.67"/>
    <polygon class="cls-1" points="7.41 16.77 9.72 16.04 11.31 16.53 8.33 17.67 7.41 16.77"/>
    <polygon class="cls-1" points="7.41 16.77 7.41 18.48 10.65 20.2 10.98 18.82 7.41 16.77"/>
    <polygon class="cls-1" points="13.03 19.06 10.65 20.2 10.98 18.82 13.62 17.18 13.03 19.06"/>
  </g>
</svg>