<?xml version="1.0" encoding="UTF-8"?>
<svg xmlns="http://www.w3.org/2000/svg" viewBox="0 0 513 513">
  <defs>
    <style>
      .cls-1 {
        fill: #fff;
      }

      .cls-2 {
        fill: #c4250c;
      }

      .cls-3 {
        fill: #aa5318;
      }
    </style>
  </defs>
  <g id="_レイヤー_4" data-name="レイヤー 4">
    <path d="M423,334s-27,39-76,57c0,0-50,18-105,13,0,0-88-2-127-48,0,0-65.24-81.41-86-162-17-66,80-115,80-115,94-57,236-26,236-26,109,25,127,87,127,87,29,45-5,114-5,114l-44,80Z"/>
  </g>
  <g id="_レイヤー_3" data-name="レイヤー 3">
    <path class="cls-2" d="M39,170c-10,75,81.67,110.44,81.67,110.44,83.33,45.56,183.27,25.32,183.27,25.32,126.06-16.75,157.06-85.75,157.06-85.75,35-50-13-103-13-103-44-62-173-67-173-67-122-12-201,58-201,58-31,23-35,62-35,62Z"/>
  </g>
  <g id="_レイヤー_2" data-name="レイヤー 2">
    <path class="cls-3" d="M106,273c42,33,136,38,136,38,76,8,166.03-38,166.03-38,22.97-13,21.97-39,21.97-39-11-68-101-102-101-102-55-26-166,1-166,1-95,37-83,104-83,104,3,33,26,36,26,36Z"/>
  </g>
  <g id="_レイヤー_5" data-name="レイヤー 5">
    <polygon class="cls-1" points="257 129.05 233 155 269 181 287 154 257 129.05"/>
    <polygon class="cls-1" points="211.28 181 233 155 269 181 262 193 211.28 181"/>
    <polygon class="cls-1" points="352.12 181 386 183 416 235 362 216 352.12 181"/>
    <polygon class="cls-1" points="332 210 345 226 362 216 352.12 181 332 210"/>
    <polygon class="cls-1" points="375 250 345 226 362 216 416 235 375 250"/>
    <polygon class="cls-1" points="153 261 198 247 233 255 193 275.16 153 261"/>
    <polygon class="cls-1" points="139.02 250 174 241 198 247 153 261 139.02 250"/>
    <polygon class="cls-1" points="139.02 250 139 271 188 292 193 275.16 139.02 250"/>
    <polygon class="cls-1" points="224 278 188 292 193 275.16 233 255 224 278"/>
  </g>
  <g id="_レイヤー_8" data-name="レイヤー 8">
    <g>
      <path d="M74.76,473.79h-6.09v-1.41h-4.69v4.92h-6.56v-37.73h17.34v34.22ZM63.98,445.67v20.62h4.69v-20.62h-4.69ZM94.68,435.12v7.03h12.42v6.09h-12.42v7.03h15.7v6.09h-13.83c.78,1.41,1.79,2.89,3.05,4.45,3.59,4.38,8.05,8.13,13.36,11.25l-4.22,6.33c-1.25-.78-2.5-1.64-3.75-2.58-3.91-3.28-7.35-7.11-10.31-11.48v18.75h-6.56v-17.81c-1.09,1.72-2.58,3.6-4.45,5.62-3.75,3.91-7.5,7.11-11.25,9.61l-4.22-6.09c3.44-2.03,6.56-4.3,9.38-6.8,4.37-3.9,7.5-7.65,9.38-11.25h-11.25v-6.09h12.42v-7.03h-11.48v-6.09h11.48v-8.91h5.62c1.88.16,2.19.78.94,1.88Z"/>
      <path d="M159.6,432.31c3.75,4.06,8.28,7.73,13.59,11.02l-2.34,6.56c-.47-.15-1.17-.7-2.11-1.64v14.06h-32.81v-13.83c-.31.63-.86,1.17-1.64,1.64l-.94-2.11v27.19h-6.09v-1.88h-2.81v4.22h-6.56v-38.67h15.47v3.98c3.9-2.81,7.27-6.17,10.08-10.08l4.45,3.05c.47.63.78,1.02.94,1.17.15.78-.08,1.09-.7.94-.16.16-.39.08-.7-.23-1.09,1.56-2.34,2.89-3.75,3.98h17.34c-1.88-1.41-3.75-3.2-5.62-5.39l4.22-3.98ZM124.44,467.23h2.81v-22.27h-2.81v22.27ZM166.63,464.42v22.97h-6.09v-1.88h-16.41v2.34h-5.86v-23.44h28.36ZM142.26,450.36l3.28-3.05h-3.98v9.38h3.98c-1.09-2.5-2.19-4.61-3.28-6.33ZM144.13,471.92h16.41v-1.88h-16.41v1.88ZM144.13,479.89h16.41v-2.34h-16.41v2.34ZM146.71,456.68h3.05v-9.38h-3.75c1.25,1.88,2.42,4.06,3.52,6.56l-2.81,2.81ZM155.15,454.57c1.56-2.19,2.89-4.61,3.98-7.27h-4.22v9.38h2.81l-2.58-2.11ZM159.6,456.68h3.52v-9.38h-3.52l2.11,1.41c.94.47,1.41.94,1.41,1.41.15.16.15.31,0,.47,0,.16-.23.23-.7.23-.78,2.03-1.72,3.98-2.81,5.86Z"/>
      <path d="M183.98,485.04c.31.62.31,1.17,0,1.64-.16.31-.39.47-.7.47s-.78-.23-1.41-.7l-4.45-4.45c3.9-5.16,7.34-11.09,10.31-17.81l4.92,4.22c-2.19,4.84-5.08,10.39-8.67,16.64ZM184.44,451.06c3.28,1.88,5.78,3.75,7.5,5.62l-3.98,5.39c-2.81-2.81-6.09-5.23-9.84-7.27l3.52-5.16,2.81,1.41ZM194.99,441.45l-4.22,5.62c-2.81-2.97-5.94-5.31-9.38-7.03l3.52-5.16c3.75,1.72,7.11,3.91,10.08,6.56ZM216.08,435.12c-.16.31-.47.63-.94.94v15.47h16.17v7.03h-16.17v29.3h-7.03v-29.3h-15v-7.03h15v-17.58h6.09c1.56,0,2.19.39,1.88,1.17Z"/>
      <path d="M282.65,443.32c4.37,3.75,6.56,9.22,6.56,16.41,0,5.62-1.72,10.55-5.16,14.77-3.44,4.22-8.12,7.58-14.06,10.08l-5.39-5.86c11.87-4.53,17.81-10.78,17.81-18.75,0-5-1.41-8.91-4.22-11.72-2.97-2.97-7.42-4.45-13.36-4.45,2.5.63,3.75,1.25,3.75,1.88-.16.63-.62,1.02-1.41,1.17-.47,3.6-1.64,8.99-3.52,16.17-1.72,6.72-3.52,11.25-5.39,13.59-2.34,2.97-4.84,4.45-7.5,4.45-2.81,0-5.31-1.09-7.5-3.28-3.28-3.28-4.92-8.28-4.92-15s2.5-12.58,7.5-17.58c5-5,11.25-7.5,18.75-7.5s13.51,1.88,18.05,5.62ZM250.54,473.56c1.72,0,3.12-1.17,4.22-3.52,2.81-7.65,4.77-16.25,5.86-25.78-5.31.78-9.22,3.2-11.72,7.27-2.34,3.75-3.52,7.58-3.52,11.48,0,4.38.86,7.42,2.58,9.14.94.94,1.79,1.41,2.58,1.41Z"/>
      <path d="M333.74,440.04l4.22,3.98c.94.78,1.41,1.33,1.41,1.64-.16.16-.7.47-1.64.94-1.56,3.13-3.13,5.78-4.69,7.97-1.56,2.34-3.05,4.45-4.45,6.33,5.62,4.06,12.42,10.08,20.39,18.05l-5.39,4.69c-8.44-8.44-14.85-14.22-19.22-17.34-3.13,3.28-6.49,6.49-10.08,9.61-3.44,2.97-7.19,5.71-11.25,8.2l-4.69-5.39c13.91-8.44,24.22-18.75,30.94-30.94l-24.84,1.41-1.17-6.8,28.59-1.41,1.88-.94Z"/>
      <path d="M393.74,440.04l4.22,3.98c.94.78,1.41,1.33,1.41,1.64-.16.16-.7.47-1.64.94-1.56,3.13-3.13,5.78-4.69,7.97-1.56,2.34-3.05,4.45-4.45,6.33,5.62,4.06,12.42,10.08,20.39,18.05l-5.39,4.69c-8.44-8.44-14.85-14.22-19.22-17.34-3.13,3.28-6.49,6.49-10.08,9.61-3.44,2.97-7.19,5.71-11.25,8.2l-4.69-5.39c13.91-8.44,24.22-18.75,30.94-30.94l-24.84,1.41-1.17-6.8,28.59-1.41,1.88-.94Z"/>
      <path d="M458.43,438.87c0,.47-.47.78-1.41.94-.47,2.34-1.25,5.39-2.34,9.14-.94,3.44-2.11,6.56-3.52,9.38,4.37,2.66,7.65,5.08,9.84,7.27l-3.75,5.62c-3.28-2.81-6.41-5.16-9.38-7.03-5,7.66-12.11,14.38-21.33,20.16l-5.16-4.92c4.06-2.34,8.12-5.31,12.19-8.91,3.75-3.59,6.56-6.95,8.44-10.08-3.28-2.19-7.03-4.22-11.25-6.09l2.58-5.39c1.88.78,4.06,1.8,6.56,3.05,2.5,1.25,4.3,2.19,5.39,2.81,2.03-3.75,3.9-10.16,5.62-19.22l5.86,1.88c1.09.31,1.64.78,1.64,1.41Z"/>
    </g>
  </g>
</svg>