<?xml version="1.0" encoding="UTF-8"?>
<svg xmlns="http://www.w3.org/2000/svg" viewBox="0 0 513 513">
  <defs>
    <style>
      .cls-1, .cls-2 {
        fill: #fff;
      }

      .cls-2 {
        stroke: #000;
        stroke-miterlimit: 10;
      }

      .cls-3 {
        fill: #c4250c;
      }

      .cls-4 {
        fill: #aa5318;
      }
    </style>
  </defs>
  <g id="_レイヤー_6" data-name="レイヤー 6">
    <rect class="cls-2" x=".5" y=".5" width="512" height="512"/>
  </g>
  <g id="_レイヤー_4" data-name="レイヤー 4">
    <path d="M423,391s-27,39-76,57c0,0-50,18-105,13,0,0-88-2-127-48,0,0-65.24-81.41-86-162-17-66,80-115,80-115,94-57,236-26,236-26,109,25,127,87,127,87,29,45-5,114-5,114l-44,80Z"/>
  </g>
  <g id="_レイヤー_3" data-name="レイヤー 3">
    <path class="cls-3" d="M39,227c-10,75,81.67,110.44,81.67,110.44,83.33,45.56,183.27,25.32,183.27,25.32,126.06-16.75,157.06-85.75,157.06-85.75,35-50-13-103-13-103-44-62-173-67-173-67-122-12-201,58-201,58-31,23-35,62-35,62Z"/>
  </g>
  <g id="_レイヤー_2" data-name="レイヤー 2">
    <path class="cls-4" d="M106,330c42,33,136,38,136,38,76,8,166.03-38,166.03-38,22.97-13,21.97-39,21.97-39-11-68-101-102-101-102-55-26-166,1-166,1-95,37-83,104-83,104,3,33,26,36,26,36Z"/>
  </g>
  <g id="_レイヤー_5" data-name="レイヤー 5">
    <polygon class="cls-1" points="257 186.05 233 212 269 238 287 211 257 186.05"/>
    <polygon class="cls-1" points="211.28 238 233 212 269 238 262 250 211.28 238"/>
    <polygon class="cls-1" points="352.12 238 386 240 416 292 362 273 352.12 238"/>
    <polygon class="cls-1" points="332 267 345 283 362 273 352.12 238 332 267"/>
    <polygon class="cls-1" points="375 307 345 283 362 273 416 292 375 307"/>
    <polygon class="cls-1" points="153 318 198 304 233 312 193 332.16 153 318"/>
    <polygon class="cls-1" points="139.02 307 174 298 198 304 153 318 139.02 307"/>
    <polygon class="cls-1" points="139.02 307 139 328 188 349 193 332.16 139.02 307"/>
    <polygon class="cls-1" points="224 335 188 349 193 332.16 233 312 224 335"/>
  </g>
</svg>